<mxfile host="app.diagrams.net" agent="Mozilla/5.0 (Windows NT 10.0; Win64; x64) AppleWebKit/537.36 (KHTML, like Gecko) Chrome/135.0.0.0 Safari/537.36 Edg/135.0.0.0" version="26.2.10">
  <diagram id="R2lEEEUBdFMjLlhIrx00" name="Page-1">
    <mxGraphModel dx="2444" dy="1977" grid="1" gridSize="10" guides="1" tooltips="1" connect="1" arrows="1" fold="1" page="1" pageScale="1" pageWidth="850" pageHeight="1100" math="0" shadow="0" extFonts="Permanent Marker^https://fonts.googleapis.com/css?family=Permanent+Marker">
      <root>
        <mxCell id="0" />
        <mxCell id="1" parent="0" />
        <mxCell id="nEoD_GPyAV6Bwp4rcUAz-5" style="edgeStyle=orthogonalEdgeStyle;rounded=0;orthogonalLoop=1;jettySize=auto;html=1;exitX=0;exitY=0.5;exitDx=0;exitDy=0;entryX=1;entryY=0.5;entryDx=0;entryDy=0;" edge="1" parent="1" source="nEoD_GPyAV6Bwp4rcUAz-1" target="nEoD_GPyAV6Bwp4rcUAz-3">
          <mxGeometry relative="1" as="geometry" />
        </mxCell>
        <mxCell id="nEoD_GPyAV6Bwp4rcUAz-6" style="edgeStyle=orthogonalEdgeStyle;rounded=0;orthogonalLoop=1;jettySize=auto;html=1;exitX=1;exitY=0.5;exitDx=0;exitDy=0;entryX=0;entryY=0.5;entryDx=0;entryDy=0;" edge="1" parent="1" source="nEoD_GPyAV6Bwp4rcUAz-1" target="nEoD_GPyAV6Bwp4rcUAz-4">
          <mxGeometry relative="1" as="geometry" />
        </mxCell>
        <mxCell id="nEoD_GPyAV6Bwp4rcUAz-1" value="Company" style="rhombus;whiteSpace=wrap;html=1;" vertex="1" parent="1">
          <mxGeometry x="360" y="200" width="160" height="80" as="geometry" />
        </mxCell>
        <mxCell id="nEoD_GPyAV6Bwp4rcUAz-24" style="edgeStyle=none;rounded=0;orthogonalLoop=1;jettySize=auto;html=1;exitX=0.5;exitY=1;exitDx=0;exitDy=0;" edge="1" parent="1" source="nEoD_GPyAV6Bwp4rcUAz-3" target="nEoD_GPyAV6Bwp4rcUAz-23">
          <mxGeometry relative="1" as="geometry" />
        </mxCell>
        <mxCell id="nEoD_GPyAV6Bwp4rcUAz-3" value="Employee" style="rounded=0;whiteSpace=wrap;html=1;" vertex="1" parent="1">
          <mxGeometry x="20" y="210" width="120" height="60" as="geometry" />
        </mxCell>
        <mxCell id="nEoD_GPyAV6Bwp4rcUAz-49" style="edgeStyle=none;rounded=0;orthogonalLoop=1;jettySize=auto;html=1;exitX=0.5;exitY=1;exitDx=0;exitDy=0;entryX=0.5;entryY=0;entryDx=0;entryDy=0;" edge="1" parent="1" source="nEoD_GPyAV6Bwp4rcUAz-4" target="nEoD_GPyAV6Bwp4rcUAz-48">
          <mxGeometry relative="1" as="geometry" />
        </mxCell>
        <mxCell id="nEoD_GPyAV6Bwp4rcUAz-4" value="" style="rounded=0;whiteSpace=wrap;html=1;" vertex="1" parent="1">
          <mxGeometry x="740" y="210" width="120" height="60" as="geometry" />
        </mxCell>
        <mxCell id="nEoD_GPyAV6Bwp4rcUAz-15" style="edgeStyle=none;rounded=0;orthogonalLoop=1;jettySize=auto;html=1;exitX=1;exitY=1;exitDx=0;exitDy=0;" edge="1" parent="1" source="nEoD_GPyAV6Bwp4rcUAz-7">
          <mxGeometry relative="1" as="geometry">
            <mxPoint x="80" y="210" as="targetPoint" />
          </mxGeometry>
        </mxCell>
        <mxCell id="nEoD_GPyAV6Bwp4rcUAz-7" value="" style="ellipse;whiteSpace=wrap;html=1;" vertex="1" parent="1">
          <mxGeometry x="-90" y="10" width="100" height="50" as="geometry" />
        </mxCell>
        <mxCell id="nEoD_GPyAV6Bwp4rcUAz-14" style="edgeStyle=none;rounded=0;orthogonalLoop=1;jettySize=auto;html=1;exitX=1;exitY=1;exitDx=0;exitDy=0;entryX=0.5;entryY=0;entryDx=0;entryDy=0;" edge="1" parent="1" source="nEoD_GPyAV6Bwp4rcUAz-9" target="nEoD_GPyAV6Bwp4rcUAz-3">
          <mxGeometry relative="1" as="geometry" />
        </mxCell>
        <mxCell id="nEoD_GPyAV6Bwp4rcUAz-9" value="" style="ellipse;whiteSpace=wrap;html=1;" vertex="1" parent="1">
          <mxGeometry x="-150" y="100" width="100" height="50" as="geometry" />
        </mxCell>
        <mxCell id="nEoD_GPyAV6Bwp4rcUAz-17" style="edgeStyle=none;rounded=0;orthogonalLoop=1;jettySize=auto;html=1;exitX=0;exitY=1;exitDx=0;exitDy=0;entryX=0.5;entryY=0;entryDx=0;entryDy=0;" edge="1" parent="1" source="nEoD_GPyAV6Bwp4rcUAz-10" target="nEoD_GPyAV6Bwp4rcUAz-3">
          <mxGeometry relative="1" as="geometry" />
        </mxCell>
        <mxCell id="nEoD_GPyAV6Bwp4rcUAz-10" value="" style="ellipse;whiteSpace=wrap;html=1;" vertex="1" parent="1">
          <mxGeometry x="150" y="10" width="100" height="50" as="geometry" />
        </mxCell>
        <mxCell id="nEoD_GPyAV6Bwp4rcUAz-18" style="edgeStyle=none;rounded=0;orthogonalLoop=1;jettySize=auto;html=1;exitX=0;exitY=1;exitDx=0;exitDy=0;entryX=0.5;entryY=0;entryDx=0;entryDy=0;" edge="1" parent="1" source="nEoD_GPyAV6Bwp4rcUAz-11" target="nEoD_GPyAV6Bwp4rcUAz-3">
          <mxGeometry relative="1" as="geometry" />
        </mxCell>
        <mxCell id="nEoD_GPyAV6Bwp4rcUAz-11" value="" style="ellipse;whiteSpace=wrap;html=1;" vertex="1" parent="1">
          <mxGeometry x="210" y="90" width="100" height="50" as="geometry" />
        </mxCell>
        <mxCell id="nEoD_GPyAV6Bwp4rcUAz-16" style="edgeStyle=none;rounded=0;orthogonalLoop=1;jettySize=auto;html=1;exitX=0.5;exitY=1;exitDx=0;exitDy=0;" edge="1" parent="1" source="nEoD_GPyAV6Bwp4rcUAz-12">
          <mxGeometry relative="1" as="geometry">
            <mxPoint x="80" y="210" as="targetPoint" />
          </mxGeometry>
        </mxCell>
        <mxCell id="nEoD_GPyAV6Bwp4rcUAz-12" value="" style="ellipse;whiteSpace=wrap;html=1;" vertex="1" parent="1">
          <mxGeometry x="30" y="-10" width="100" height="50" as="geometry" />
        </mxCell>
        <mxCell id="nEoD_GPyAV6Bwp4rcUAz-21" style="edgeStyle=none;rounded=0;orthogonalLoop=1;jettySize=auto;html=1;exitX=1;exitY=0;exitDx=0;exitDy=0;entryX=0.5;entryY=1;entryDx=0;entryDy=0;" edge="1" parent="1" source="nEoD_GPyAV6Bwp4rcUAz-19" target="nEoD_GPyAV6Bwp4rcUAz-3">
          <mxGeometry relative="1" as="geometry" />
        </mxCell>
        <mxCell id="nEoD_GPyAV6Bwp4rcUAz-19" value="" style="ellipse;whiteSpace=wrap;html=1;" vertex="1" parent="1">
          <mxGeometry x="-130" y="340" width="100" height="50" as="geometry" />
        </mxCell>
        <mxCell id="nEoD_GPyAV6Bwp4rcUAz-50" style="edgeStyle=none;rounded=0;orthogonalLoop=1;jettySize=auto;html=1;exitX=1;exitY=0.5;exitDx=0;exitDy=0;entryX=0;entryY=0.5;entryDx=0;entryDy=0;" edge="1" parent="1" source="nEoD_GPyAV6Bwp4rcUAz-23" target="nEoD_GPyAV6Bwp4rcUAz-48">
          <mxGeometry relative="1" as="geometry" />
        </mxCell>
        <mxCell id="nEoD_GPyAV6Bwp4rcUAz-65" style="edgeStyle=none;rounded=0;orthogonalLoop=1;jettySize=auto;html=1;exitX=0.5;exitY=1;exitDx=0;exitDy=0;entryX=0.5;entryY=0;entryDx=0;entryDy=0;" edge="1" parent="1" source="nEoD_GPyAV6Bwp4rcUAz-23" target="nEoD_GPyAV6Bwp4rcUAz-64">
          <mxGeometry relative="1" as="geometry" />
        </mxCell>
        <mxCell id="nEoD_GPyAV6Bwp4rcUAz-23" value="Employee" style="rhombus;whiteSpace=wrap;html=1;" vertex="1" parent="1">
          <mxGeometry y="560" width="160" height="80" as="geometry" />
        </mxCell>
        <mxCell id="nEoD_GPyAV6Bwp4rcUAz-26" style="edgeStyle=none;rounded=0;orthogonalLoop=1;jettySize=auto;html=1;exitX=1;exitY=1;exitDx=0;exitDy=0;" edge="1" parent="1" source="nEoD_GPyAV6Bwp4rcUAz-25" target="nEoD_GPyAV6Bwp4rcUAz-23">
          <mxGeometry relative="1" as="geometry" />
        </mxCell>
        <mxCell id="nEoD_GPyAV6Bwp4rcUAz-25" value="Department" style="ellipse;whiteSpace=wrap;html=1;" vertex="1" parent="1">
          <mxGeometry x="-80" y="460" width="100" height="50" as="geometry" />
        </mxCell>
        <mxCell id="nEoD_GPyAV6Bwp4rcUAz-27" value="Start Date" style="ellipse;whiteSpace=wrap;html=1;" vertex="1" parent="1">
          <mxGeometry x="-80" y="700" width="100" height="50" as="geometry" />
        </mxCell>
        <mxCell id="nEoD_GPyAV6Bwp4rcUAz-28" style="edgeStyle=none;rounded=0;orthogonalLoop=1;jettySize=auto;html=1;exitX=1;exitY=0;exitDx=0;exitDy=0;entryX=0.35;entryY=0.885;entryDx=0;entryDy=0;entryPerimeter=0;" edge="1" parent="1" source="nEoD_GPyAV6Bwp4rcUAz-27" target="nEoD_GPyAV6Bwp4rcUAz-23">
          <mxGeometry relative="1" as="geometry" />
        </mxCell>
        <mxCell id="nEoD_GPyAV6Bwp4rcUAz-34" style="edgeStyle=none;rounded=0;orthogonalLoop=1;jettySize=auto;html=1;exitX=1;exitY=1;exitDx=0;exitDy=0;entryX=0.5;entryY=0;entryDx=0;entryDy=0;" edge="1" parent="1" source="nEoD_GPyAV6Bwp4rcUAz-29" target="nEoD_GPyAV6Bwp4rcUAz-4">
          <mxGeometry relative="1" as="geometry" />
        </mxCell>
        <mxCell id="nEoD_GPyAV6Bwp4rcUAz-29" value="" style="ellipse;whiteSpace=wrap;html=1;" vertex="1" parent="1">
          <mxGeometry x="690" y="20" width="100" height="50" as="geometry" />
        </mxCell>
        <mxCell id="nEoD_GPyAV6Bwp4rcUAz-36" style="edgeStyle=none;rounded=0;orthogonalLoop=1;jettySize=auto;html=1;exitX=0;exitY=1;exitDx=0;exitDy=0;entryX=0.5;entryY=0;entryDx=0;entryDy=0;" edge="1" parent="1" source="nEoD_GPyAV6Bwp4rcUAz-30" target="nEoD_GPyAV6Bwp4rcUAz-4">
          <mxGeometry relative="1" as="geometry" />
        </mxCell>
        <mxCell id="nEoD_GPyAV6Bwp4rcUAz-30" value="" style="ellipse;whiteSpace=wrap;html=1;" vertex="1" parent="1">
          <mxGeometry x="830" y="20" width="100" height="50" as="geometry" />
        </mxCell>
        <mxCell id="nEoD_GPyAV6Bwp4rcUAz-37" style="edgeStyle=none;rounded=0;orthogonalLoop=1;jettySize=auto;html=1;exitX=1;exitY=1;exitDx=0;exitDy=0;entryX=0.5;entryY=0;entryDx=0;entryDy=0;" edge="1" parent="1" source="nEoD_GPyAV6Bwp4rcUAz-32" target="nEoD_GPyAV6Bwp4rcUAz-4">
          <mxGeometry relative="1" as="geometry" />
        </mxCell>
        <mxCell id="nEoD_GPyAV6Bwp4rcUAz-32" value="" style="ellipse;whiteSpace=wrap;html=1;" vertex="1" parent="1">
          <mxGeometry x="640" y="110" width="100" height="50" as="geometry" />
        </mxCell>
        <mxCell id="nEoD_GPyAV6Bwp4rcUAz-38" style="edgeStyle=none;rounded=0;orthogonalLoop=1;jettySize=auto;html=1;exitX=0;exitY=1;exitDx=0;exitDy=0;" edge="1" parent="1" source="nEoD_GPyAV6Bwp4rcUAz-33">
          <mxGeometry relative="1" as="geometry">
            <mxPoint x="800" y="210" as="targetPoint" />
          </mxGeometry>
        </mxCell>
        <mxCell id="nEoD_GPyAV6Bwp4rcUAz-33" value="" style="ellipse;whiteSpace=wrap;html=1;" vertex="1" parent="1">
          <mxGeometry x="870" y="110" width="100" height="50" as="geometry" />
        </mxCell>
        <mxCell id="nEoD_GPyAV6Bwp4rcUAz-43" style="edgeStyle=none;rounded=0;orthogonalLoop=1;jettySize=auto;html=1;exitX=1;exitY=0;exitDx=0;exitDy=0;entryX=0.5;entryY=1;entryDx=0;entryDy=0;" edge="1" parent="1" source="nEoD_GPyAV6Bwp4rcUAz-39" target="nEoD_GPyAV6Bwp4rcUAz-4">
          <mxGeometry relative="1" as="geometry" />
        </mxCell>
        <mxCell id="nEoD_GPyAV6Bwp4rcUAz-39" value="" style="ellipse;whiteSpace=wrap;html=1;" vertex="1" parent="1">
          <mxGeometry x="660" y="330" width="100" height="50" as="geometry" />
        </mxCell>
        <mxCell id="nEoD_GPyAV6Bwp4rcUAz-45" style="edgeStyle=none;rounded=0;orthogonalLoop=1;jettySize=auto;html=1;exitX=0;exitY=0;exitDx=0;exitDy=0;entryX=0.5;entryY=1;entryDx=0;entryDy=0;" edge="1" parent="1" source="nEoD_GPyAV6Bwp4rcUAz-40" target="nEoD_GPyAV6Bwp4rcUAz-4">
          <mxGeometry relative="1" as="geometry" />
        </mxCell>
        <mxCell id="nEoD_GPyAV6Bwp4rcUAz-40" value="" style="ellipse;whiteSpace=wrap;html=1;" vertex="1" parent="1">
          <mxGeometry x="860" y="330" width="100" height="50" as="geometry" />
        </mxCell>
        <mxCell id="nEoD_GPyAV6Bwp4rcUAz-46" style="edgeStyle=none;rounded=0;orthogonalLoop=1;jettySize=auto;html=1;exitX=0.5;exitY=0;exitDx=0;exitDy=0;entryX=0.5;entryY=1;entryDx=0;entryDy=0;" edge="1" parent="1" source="nEoD_GPyAV6Bwp4rcUAz-41" target="nEoD_GPyAV6Bwp4rcUAz-39">
          <mxGeometry relative="1" as="geometry" />
        </mxCell>
        <mxCell id="nEoD_GPyAV6Bwp4rcUAz-41" value="" style="ellipse;whiteSpace=wrap;html=1;" vertex="1" parent="1">
          <mxGeometry x="680" y="410" width="100" height="50" as="geometry" />
        </mxCell>
        <mxCell id="nEoD_GPyAV6Bwp4rcUAz-47" style="edgeStyle=none;rounded=0;orthogonalLoop=1;jettySize=auto;html=1;exitX=0.5;exitY=0;exitDx=0;exitDy=0;entryX=0.5;entryY=1;entryDx=0;entryDy=0;" edge="1" parent="1" source="nEoD_GPyAV6Bwp4rcUAz-42" target="nEoD_GPyAV6Bwp4rcUAz-40">
          <mxGeometry relative="1" as="geometry" />
        </mxCell>
        <mxCell id="nEoD_GPyAV6Bwp4rcUAz-42" value="" style="ellipse;whiteSpace=wrap;html=1;" vertex="1" parent="1">
          <mxGeometry x="840" y="410" width="100" height="50" as="geometry" />
        </mxCell>
        <mxCell id="nEoD_GPyAV6Bwp4rcUAz-63" style="edgeStyle=none;rounded=0;orthogonalLoop=1;jettySize=auto;html=1;exitX=0.5;exitY=1;exitDx=0;exitDy=0;entryX=0.5;entryY=0;entryDx=0;entryDy=0;" edge="1" parent="1" source="nEoD_GPyAV6Bwp4rcUAz-48" target="nEoD_GPyAV6Bwp4rcUAz-62">
          <mxGeometry relative="1" as="geometry" />
        </mxCell>
        <mxCell id="nEoD_GPyAV6Bwp4rcUAz-48" value="Company" style="rhombus;whiteSpace=wrap;html=1;" vertex="1" parent="1">
          <mxGeometry x="720" y="560" width="160" height="80" as="geometry" />
        </mxCell>
        <mxCell id="nEoD_GPyAV6Bwp4rcUAz-54" style="edgeStyle=none;rounded=0;orthogonalLoop=1;jettySize=auto;html=1;exitX=0.5;exitY=1;exitDx=0;exitDy=0;" edge="1" parent="1" source="nEoD_GPyAV6Bwp4rcUAz-51">
          <mxGeometry relative="1" as="geometry">
            <mxPoint x="589.8461538461538" y="600" as="targetPoint" />
          </mxGeometry>
        </mxCell>
        <mxCell id="nEoD_GPyAV6Bwp4rcUAz-51" value="" style="ellipse;whiteSpace=wrap;html=1;" vertex="1" parent="1">
          <mxGeometry x="540" y="500" width="100" height="50" as="geometry" />
        </mxCell>
        <mxCell id="nEoD_GPyAV6Bwp4rcUAz-55" style="edgeStyle=none;rounded=0;orthogonalLoop=1;jettySize=auto;html=1;exitX=0.5;exitY=0;exitDx=0;exitDy=0;" edge="1" parent="1" source="nEoD_GPyAV6Bwp4rcUAz-52">
          <mxGeometry relative="1" as="geometry">
            <mxPoint x="589.8461538461538" y="600" as="targetPoint" />
          </mxGeometry>
        </mxCell>
        <mxCell id="nEoD_GPyAV6Bwp4rcUAz-52" value="" style="ellipse;whiteSpace=wrap;html=1;" vertex="1" parent="1">
          <mxGeometry x="540" y="650" width="100" height="50" as="geometry" />
        </mxCell>
        <mxCell id="nEoD_GPyAV6Bwp4rcUAz-61" style="edgeStyle=none;rounded=0;orthogonalLoop=1;jettySize=auto;html=1;exitX=1;exitY=0;exitDx=0;exitDy=0;entryX=0;entryY=1;entryDx=0;entryDy=0;" edge="1" parent="1" source="nEoD_GPyAV6Bwp4rcUAz-56" target="nEoD_GPyAV6Bwp4rcUAz-48">
          <mxGeometry relative="1" as="geometry" />
        </mxCell>
        <mxCell id="nEoD_GPyAV6Bwp4rcUAz-56" value="" style="ellipse;whiteSpace=wrap;html=1;" vertex="1" parent="1">
          <mxGeometry x="650" y="690" width="100" height="50" as="geometry" />
        </mxCell>
        <mxCell id="nEoD_GPyAV6Bwp4rcUAz-60" style="edgeStyle=none;rounded=0;orthogonalLoop=1;jettySize=auto;html=1;exitX=0;exitY=0;exitDx=0;exitDy=0;entryX=1;entryY=1;entryDx=0;entryDy=0;" edge="1" parent="1" source="nEoD_GPyAV6Bwp4rcUAz-58" target="nEoD_GPyAV6Bwp4rcUAz-48">
          <mxGeometry relative="1" as="geometry" />
        </mxCell>
        <mxCell id="nEoD_GPyAV6Bwp4rcUAz-58" value="" style="ellipse;whiteSpace=wrap;html=1;" vertex="1" parent="1">
          <mxGeometry x="870" y="690" width="100" height="50" as="geometry" />
        </mxCell>
        <mxCell id="nEoD_GPyAV6Bwp4rcUAz-67" style="edgeStyle=none;rounded=0;orthogonalLoop=1;jettySize=auto;html=1;exitX=0;exitY=0.5;exitDx=0;exitDy=0;entryX=1;entryY=0.5;entryDx=0;entryDy=0;" edge="1" parent="1" source="nEoD_GPyAV6Bwp4rcUAz-62" target="nEoD_GPyAV6Bwp4rcUAz-66">
          <mxGeometry relative="1" as="geometry" />
        </mxCell>
        <mxCell id="nEoD_GPyAV6Bwp4rcUAz-74" style="edgeStyle=none;rounded=0;orthogonalLoop=1;jettySize=auto;html=1;exitX=0.5;exitY=1;exitDx=0;exitDy=0;" edge="1" parent="1" source="nEoD_GPyAV6Bwp4rcUAz-62" target="nEoD_GPyAV6Bwp4rcUAz-69">
          <mxGeometry relative="1" as="geometry" />
        </mxCell>
        <mxCell id="nEoD_GPyAV6Bwp4rcUAz-62" value="" style="rounded=0;whiteSpace=wrap;html=1;" vertex="1" parent="1">
          <mxGeometry x="740" y="870" width="120" height="60" as="geometry" />
        </mxCell>
        <mxCell id="nEoD_GPyAV6Bwp4rcUAz-64" value="Employee" style="rhombus;whiteSpace=wrap;html=1;" vertex="1" parent="1">
          <mxGeometry y="1130" width="160" height="80" as="geometry" />
        </mxCell>
        <mxCell id="nEoD_GPyAV6Bwp4rcUAz-68" style="edgeStyle=none;rounded=0;orthogonalLoop=1;jettySize=auto;html=1;exitX=0;exitY=0.5;exitDx=0;exitDy=0;" edge="1" parent="1" source="nEoD_GPyAV6Bwp4rcUAz-66">
          <mxGeometry relative="1" as="geometry">
            <mxPoint x="80" y="899.9230769230767" as="targetPoint" />
          </mxGeometry>
        </mxCell>
        <mxCell id="nEoD_GPyAV6Bwp4rcUAz-71" style="edgeStyle=none;rounded=0;orthogonalLoop=1;jettySize=auto;html=1;exitX=0.5;exitY=1;exitDx=0;exitDy=0;entryX=0.5;entryY=0;entryDx=0;entryDy=0;" edge="1" parent="1" source="nEoD_GPyAV6Bwp4rcUAz-66" target="nEoD_GPyAV6Bwp4rcUAz-70">
          <mxGeometry relative="1" as="geometry" />
        </mxCell>
        <mxCell id="nEoD_GPyAV6Bwp4rcUAz-66" value="Employee" style="rhombus;whiteSpace=wrap;html=1;" vertex="1" parent="1">
          <mxGeometry x="380" y="860" width="160" height="80" as="geometry" />
        </mxCell>
        <mxCell id="nEoD_GPyAV6Bwp4rcUAz-72" style="edgeStyle=none;rounded=0;orthogonalLoop=1;jettySize=auto;html=1;exitX=0;exitY=0.5;exitDx=0;exitDy=0;entryX=1;entryY=0.5;entryDx=0;entryDy=0;" edge="1" parent="1" source="nEoD_GPyAV6Bwp4rcUAz-69" target="nEoD_GPyAV6Bwp4rcUAz-70">
          <mxGeometry relative="1" as="geometry" />
        </mxCell>
        <mxCell id="nEoD_GPyAV6Bwp4rcUAz-69" value="" style="rounded=0;whiteSpace=wrap;html=1;" vertex="1" parent="1">
          <mxGeometry x="740" y="1140" width="120" height="60" as="geometry" />
        </mxCell>
        <mxCell id="nEoD_GPyAV6Bwp4rcUAz-73" style="edgeStyle=none;rounded=0;orthogonalLoop=1;jettySize=auto;html=1;exitX=0;exitY=0.5;exitDx=0;exitDy=0;entryX=1;entryY=0.5;entryDx=0;entryDy=0;" edge="1" parent="1" source="nEoD_GPyAV6Bwp4rcUAz-70" target="nEoD_GPyAV6Bwp4rcUAz-64">
          <mxGeometry relative="1" as="geometry" />
        </mxCell>
        <mxCell id="nEoD_GPyAV6Bwp4rcUAz-70" value="Employee" style="rhombus;whiteSpace=wrap;html=1;" vertex="1" parent="1">
          <mxGeometry x="380" y="1130" width="160" height="80" as="geometry" />
        </mxCell>
      </root>
    </mxGraphModel>
  </diagram>
</mxfile>
